<svg width="17" height="20" viewBox="0 0 17 20" fill="none" xmlns="http://www.w3.org/2000/svg">
<path d="M2.58333 19.1673C2.07917 19.1673 1.64742 18.988 1.28808 18.6292C0.929361 18.2699 0.75 17.8381 0.75 17.334V4.50065H2.58333V17.334H12.6667V19.1673H2.58333ZM6.25 15.5006C5.74583 15.5006 5.31439 15.3213 4.95567 14.9626C4.59633 14.6032 4.41667 14.1715 4.41667 13.6673V2.66732C4.41667 2.16315 4.59633 1.7314 4.95567 1.37207C5.31439 1.01335 5.74583 0.833984 6.25 0.833984H14.5C15.0042 0.833984 15.4359 1.01335 15.7952 1.37207C16.154 1.7314 16.3333 2.16315 16.3333 2.66732V13.6673C16.3333 14.1715 16.154 14.6032 15.7952 14.9626C15.4359 15.3213 15.0042 15.5006 14.5 15.5006H6.25ZM6.25 13.6673H14.5V2.66732H6.25V13.6673ZM6.25 13.6673V2.66732V13.6673Z" fill="#88909B"/>
</svg>
