<svg width="18" height="18" viewBox="0 0 18 18" fill="none" xmlns="http://www.w3.org/2000/svg">
<path fill-rule="evenodd" clip-rule="evenodd" d="M15.2638 10.6916L10.7694 15.1878L8.55957 15.6297L9.00153 13.4199L13.4983 8.92374C13.7319 8.68973 14.0489 8.55823 14.3796 8.55823C14.7102 8.55823 15.0273 8.68973 15.2608 8.92374L15.2661 8.92845C15.7522 9.41602 15.7512 10.2053 15.2638 10.6916Z" stroke="#394A64" stroke-width="1.5"/>
<path d="M6.7897 13.8615H3.25403C2.76586 13.8615 2.37012 13.4657 2.37012 12.9775V3.25446C2.37012 2.76629 2.76586 2.37054 3.25403 2.37054H12.0932C12.5814 2.37054 12.9771 2.76629 12.9771 3.25446V7.23208" stroke="#394A64" stroke-width="1.5"/>
<path d="M6.78882 5.02216H10.3245" stroke="#394A64" stroke-width="1.5"/>
<path d="M5.02173 7.67371H10.3252" stroke="#394A64" stroke-width="1.5"/>
<path d="M5.02173 10.3253H9.44131" stroke="#394A64" stroke-width="1.5"/>
</svg>
