<svg width="17" height="16" viewBox="0 0 17 16" fill="none" xmlns="http://www.w3.org/2000/svg">
<path d="M0.0625001 15.6772C0.0625001 15.8546 0.20625 15.9983 0.383574 15.9983H1.98895C2.11879 15.9983 2.23583 15.9201 2.28552 15.8001C2.3352 15.6801 2.30774 15.5421 2.21595 15.4502L1.75392 14.9879C1.73884 14.9729 1.73037 14.9525 1.73037 14.9312C1.73037 14.91 1.73884 14.8896 1.75392 14.8746L2.91492 13.7136C3.01633 13.6122 3.05593 13.4644 3.01881 13.3258C2.9817 13.1873 2.8735 13.0791 2.73498 13.042C2.59647 13.0049 2.44867 13.0445 2.34727 13.1459L1.18626 14.3066C1.1712 14.3217 1.15075 14.3302 1.12943 14.3302C1.10811 14.3302 1.08766 14.3217 1.0726 14.3066L0.610574 13.8446C0.518707 13.7527 0.380554 13.7253 0.260566 13.775C0.140577 13.8248 0.0623979 13.942 0.0625001 14.0719V15.6772Z" fill="#394A64"/>
<path d="M16.0608 0.321075C16.0608 0.14375 15.9171 0 15.7397 0H14.1344C14.0045 2.77242e-05 13.8875 0.0782549 13.8378 0.198214C13.7881 0.318174 13.8156 0.45625 13.9074 0.548076L14.3694 1.0101C14.3845 1.02516 14.393 1.04561 14.393 1.06693C14.393 1.08826 14.3845 1.1087 14.3694 1.12376L13.2084 2.28445C13.0516 2.44121 13.0516 2.69536 13.2084 2.85211C13.3651 3.00887 13.6193 3.00887 13.776 2.85211L14.9371 1.6911C14.9521 1.67601 14.9726 1.66752 14.9939 1.66752C15.0152 1.66752 15.0357 1.67601 15.0507 1.6911L15.5127 2.15313C15.5729 2.21347 15.6546 2.24742 15.7397 2.24753C15.782 2.24766 15.8238 2.23937 15.8627 2.22313C15.9827 2.17339 16.0609 2.0563 16.0608 1.92645V0.321075Z" fill="#394A64"/>
<path d="M0.0625 1.92645C0.0624673 2.0563 0.140652 2.17339 0.260603 2.22312C0.299559 2.23936 0.341368 2.24766 0.383574 2.24752C0.468722 2.2475 0.550375 2.21366 0.610574 2.15345L1.12943 1.63427L2.34727 2.8521C2.44867 2.95351 2.59647 2.99311 2.73498 2.95599C2.8735 2.91888 2.9817 2.81068 3.01881 2.67216C3.05593 2.53364 3.01633 2.38585 2.91492 2.28444L1.75392 1.12376C1.73882 1.1087 1.73034 1.08825 1.73034 1.06693C1.73034 1.04561 1.73882 1.02516 1.75392 1.0101L2.21595 0.547753C2.30751 0.455898 2.33483 0.317971 2.28517 0.198152C2.23551 0.0783333 2.11865 0.00015708 1.98895 0H0.383574C0.20625 0 0.0625 0.14375 0.0625 0.321074V1.92645Z" fill="#394A64"/>
<path d="M16.0608 14.0719C16.0608 13.942 15.9826 13.825 15.8626 13.7753C15.7426 13.7256 15.6046 13.7531 15.5127 13.8449L15.0507 14.3069C15.0357 14.322 15.0152 14.3305 14.9939 14.3305C14.9726 14.3305 14.9521 14.322 14.9371 14.3069L13.776 13.1459C13.6193 12.9891 13.3651 12.9891 13.2084 13.1459C13.0516 13.3026 13.0516 13.5568 13.2084 13.7135L14.3694 14.8746C14.3845 14.8896 14.3929 14.91 14.3929 14.9312C14.3929 14.9525 14.3845 14.9729 14.3694 14.9879L13.9074 15.4502C13.8156 15.5421 13.7881 15.6801 13.8378 15.8001C13.8875 15.9201 14.0045 15.9983 14.1344 15.9983H15.7397C15.9171 15.9983 16.0608 15.8546 16.0608 15.6772V14.0719Z" fill="#394A64"/>
<path d="M3.00122 3.99921V5.57815H5.6328V11.8939H7.21175V5.57815H9.84333V3.99921H3.00122ZM13.0012 6.63079H8.26438V8.20973H9.84333V11.8939H11.4223V8.20973H13.0012V6.63079Z" fill="#394A64"/>
</svg>
